# Blender v2.76 (sub 0) OBJ File: ''
# www.blender.org
mtllib skybox.mtl
o Cube.006
v 1.000000 -1.000000 -1.000000
v 1.000000 -1.000000 1.000000
v -1.000000 -1.000000 1.000000
v -1.000000 -1.000000 -1.000000
v -1.000000 1.000000 1.000000
v 0.999999 1.000000 1.000001
v -1.000000 -1.000000 1.000000
v 1.000000 -1.000000 1.000000
v -1.000000 -1.000000 1.000000
v -1.000000 -1.000000 -1.000000
v -1.000000 1.000000 1.000000
v -1.000000 1.000000 -1.000000
v 1.000000 1.000000 -0.999999
v 0.999999 1.000000 1.000001
v -1.000000 1.000000 1.000000
v -1.000000 1.000000 -1.000000
v 1.000000 -1.000000 -1.000000
v 1.000000 -1.000000 1.000000
v 1.000000 1.000000 -0.999999
v 0.999999 1.000000 1.000001
v -1.000000 1.000000 -1.000000
v 1.000000 1.000000 -0.999999
v -1.000000 -1.000000 -1.000000
v 1.000000 -1.000000 -1.000000
vt 0.250000 0.000001
vt 0.500000 0.000001
vt 0.500000 0.333334
vt 0.250000 0.333334
vt 0.250000 0.333380
vt 0.250000 0.666713
vt 0.000000 0.666713
vt 0.000000 0.333380
vt 1.000001 0.333334
vt 1.000001 0.666667
vt 0.750001 0.666667
vt 0.750001 0.333334
vt 0.500000 0.666591
vt 0.500000 0.999924
vt 0.250000 0.999924
vt 0.250000 0.666591
vt 0.500000 0.666667
vn 0.000000 -1.000000 0.000000
vn -0.000000 -0.000000 1.000000
vn -1.000000 -0.000000 -0.000000
vn 0.000000 1.000000 0.000000
vn 1.000000 0.000000 0.000000
vn 0.000000 0.000000 -1.000000
usemtl Material
s off
f 1/1/1 2/2/1 3/3/1 4/4/1
f 8/5/2 6/6/2 5/7/2 7/8/2
f 9/9/3 11/10/3 12/11/3 10/12/3
f 13/13/4 16/14/4 15/15/4 14/16/4
f 17/3/5 19/17/5 20/6/5 18/4/5
f 22/17/6 24/3/6 23/12/6 21/11/6
